<?xml version="1.0" encoding="UTF-8" standalone="no"?>
<svg
  width="1024"
  height="974"
  viewBox="0 0 1024 974"
  fill="none"
  version="1.1"
  id="svg2"
  sodipodi:docname="xk6-kafka-logo.svg"
  inkscape:version="1.3.2 (091e20e, 2023-11-25, custom)"
  inkscape:export-filename="xk6-kafka-logo.png"
  inkscape:export-xdpi="96"
  inkscape:export-ydpi="96"
  xmlns:inkscape="http://www.inkscape.org/namespaces/inkscape"
  xmlns:sodipodi="http://sodipodi.sourceforge.net/DTD/sodipodi-0.dtd"
  xmlns="http://www.w3.org/2000/svg"
  xmlns:svg="http://www.w3.org/2000/svg">
  <defs
    id="defs2" />
  <path
    d="m 1023.44,942.291 c 3.35,15.858 -8.75,30.78 -24.958,30.78 H 25.5392 c -18.68256,0 -31.02703,-19.422 -23.09597,-36.337 L 319.975,259.491 c 6.826,-14.557 25.252,-19.247 38.206,-9.726 l 162.534,119.479 c 11.866,8.724 28.632,5.614 36.582,-6.781 L 782.224,11.7515 c 12.314,-19.20163 41.715,-13.82016 46.43,8.4984 z"
    fill="#ff671d"
    id="path1"
    sodipodi:nodetypes="csscccccccc" />
  <path
    d="M647.07 759.147C635.932 759.147 625.288 754.747 617.412 746.871C609.536 738.996 605.136 728.352 605.136 717.213C605.136 706.073 609.536 695.429 617.412 687.553C625.288 679.677 635.932 675.279 647.07 675.279H647.425C652.961 675.279 658.424 676.412 663.462 678.542C668.57 680.742 673.113 683.863 676.943 687.908C680.988 691.598 684.181 696.067 686.309 701.105C688.509 706.143 689.574 711.536 689.574 717.001C689.432 728.212 684.891 738.853 676.943 746.731C668.997 754.607 658.281 759.005 647.07 759.077V759.147Z"
    fill="#FF671D"
    id="path2" />
  <path
    d="m 633.78979,693.38504 c -16.18025,0 -30.68609,7.16847 -40.61957,18.45445 l -25.45395,-18.0196 c 2.70204,-7.43936 4.25348,-15.42752 4.25348,-23.78854 0,-8.21608 -1.49746,-16.0703 -4.11053,-23.3997 l 25.39698,-17.82866 c 9.93246,11.22901 24.40033,18.35848 40.53359,18.35848 29.86439,0 54.16475,-24.29637 54.16475,-54.16476 0,-29.86839 -24.30036,-54.16476 -54.16475,-54.16476 -29.86439,0 -54.16476,24.29637 -54.16476,54.16476 0,5.3461 0.80772,10.50127 2.25721,15.38354 l -25.41398,17.83767 c -10.61623,-13.17033 -25.90179,-22.36607 -43.31762,-25.17307 v -30.62912 c 24.53529,-5.15317 43.02173,-26.95243 43.02173,-53.00017 0,-29.86839 -24.30037,-54.16476 -54.16476,-54.16476 -29.86439,0 -54.16475,24.29637 -54.16475,54.16476 0,25.69887 18.0076,47.22922 42.05204,52.75026 v 31.02697 c -32.81433,5.75995 -57.84944,34.39779 -57.84944,68.83856 0,34.6087 25.28302,63.3515 58.33428,68.91552 v 32.76235 c -24.29037,5.33911 -42.53688,27.00141 -42.53688,52.87522 0,29.86839 24.30036,54.16476 54.16475,54.16476 29.86439,0 54.16476,-24.29637 54.16476,-54.16476 0,-25.87381 -18.24653,-47.53611 -42.53689,-52.87522 v -32.76335 a 69.940154,69.940154 0 0 0 42.58487,-24.76721 l 25.6239,18.13656 c -1.4225,4.83828 -2.21922,9.94246 -2.21922,15.23458 0,29.86839 24.30037,54.16476 54.16476,54.16476 29.86439,0 54.16475,-24.29637 54.16475,-54.16476 0,-29.86839 -24.30036,-54.16476 -54.16475,-54.16476 z m 0,-126.65 c 14.48185,0 26.26067,11.78381 26.26067,26.26167 0,14.47786 -11.77882,26.26067 -26.26067,26.26067 -14.48186,0 -26.26068,-11.78281 -26.26068,-26.26067 0,-14.47786 11.77882,-26.26167 26.26068,-26.26167 z M 475.74593,517.41556 c 0,-14.47787 11.77983,-26.26067 26.26168,-26.26067 14.48186,0 26.26066,11.7828 26.26066,26.26067 0,14.47786 -11.7788,26.26067 -26.26066,26.26067 -14.48185,0 -26.26168,-11.78281 -26.26168,-26.26067 z m 52.52234,307.16888 c 0,14.47786 -11.7788,26.26067 -26.26066,26.26067 -14.48185,0 -26.26168,-11.78281 -26.26168,-26.26067 0,-14.47786 11.77983,-26.26067 26.26168,-26.26067 14.48186,0 26.26066,11.78281 26.26066,26.26067 z M 502.0056,706.65634 c -20.19781,0 -36.62898,-16.42816 -36.62898,-36.62499 0,-20.19783 16.43117,-36.62899 36.62898,-36.62899 20.19683,0 36.628,16.43116 36.628,36.62899 0,20.19683 -16.43117,36.62499 -36.628,36.62499 z m 131.78419,67.15513 c -14.48186,0 -26.26068,-11.7838 -26.26068,-26.26167 0,-14.47784 11.77882,-26.26067 26.26068,-26.26067 14.48185,0 26.26067,11.78283 26.26067,26.26067 0,14.47787 -11.77882,26.26167 -26.26067,26.26167 z"
    style="fill:#ffffff;stroke-width:0.999646;fill-opacity:1"
    id="path1-9" />
</svg>