<?xml version="1.0" encoding="UTF-8" standalone="no"?>
<svg
   width="374"
   height="362"
   viewBox="0 0 374 362"
   fill="none"
   version="1.1"
   id="svg20"
   sodipodi:docname="xk6-kafka-logo.svg"
   xml:space="preserve"
   inkscape:export-filename="xk6-kafka-logo.png"
   inkscape:export-xdpi="96"
   inkscape:export-ydpi="96"
   inkscape:version="1.2 (dc2aedaf03, 2022-05-15)"
   xmlns:inkscape="http://www.inkscape.org/namespaces/inkscape"
   xmlns:sodipodi="http://sodipodi.sourceforge.net/DTD/sodipodi-0.dtd"
   xmlns="http://www.w3.org/2000/svg"
   xmlns:svg="http://www.w3.org/2000/svg"><defs
     id="defs24" /><sodipodi:namedview
     id="namedview22"
     pagecolor="#ffffff"
     bordercolor="#000000"
     borderopacity="0.25"
     inkscape:showpageshadow="2"
     inkscape:pageopacity="0.0"
     inkscape:pagecheckerboard="0"
     inkscape:deskcolor="#d1d1d1"
     showgrid="false"
     inkscape:zoom="2.2651934"
     inkscape:cx="67.985366"
     inkscape:cy="181"
     inkscape:window-width="1920"
     inkscape:window-height="1094"
     inkscape:window-x="-11"
     inkscape:window-y="-11"
     inkscape:window-maximized="1"
     inkscape:current-layer="svg20" /><path
     d="M 373.5,361.998 H 0.5 L 124.674,97.1265 199.473,152.115 297.037,0.00146484 Z"
     fill="#7d64ff"
     id="path18"
     sodipodi:nodetypes="cccccc" /><path
     d="m 231.06704,255.3316 c -6.1544,0 -11.67192,2.72663 -15.45026,7.01943 l -9.6818,-6.85403 c 1.02777,-2.82967 1.61788,-5.86808 1.61788,-9.04833 0,-3.1251 -0.56958,-6.11257 -1.5635,-8.90042 l 9.66011,-6.7814 c 3.77797,4.27113 9.28104,6.98292 15.41757,6.98292 11.35937,0 20.60239,-9.24148 20.60239,-20.60237 0,-11.36089 -9.24302,-20.60237 -20.60239,-20.60237 -11.35937,0 -20.60238,9.24148 -20.60238,20.60237 0,2.03347 0.30723,3.99432 0.85856,5.85136 l -9.66658,6.78482 c -4.03804,-5.00952 -9.85214,-8.50726 -16.4765,-9.57495 v -11.65024 c 9.33236,-1.96008 16.36395,-10.25175 16.36395,-20.15941 0,-11.36088 -9.243,-20.60237 -20.60238,-20.60237 -11.35936,0 -20.60236,9.24149 -20.60236,20.60237 0,9.77495 6.84946,17.96434 15.99512,20.06435 v 11.80158 c -12.48143,2.19089 -22.0039,13.0837 -22.0039,26.18376 0,13.16394 9.61677,24.09669 22.18831,26.21305 v 12.46165 c -9.2392,2.03081 -16.17953,10.27039 -16.17953,20.11188 0,11.36089 9.243,20.60237 20.60236,20.60237 11.35938,0 20.60238,-9.24148 20.60238,-20.60237 0,-9.84149 -6.94034,-18.08107 -16.17954,-20.11188 v -12.46203 a 26.602781,26.602781 0 0 0 16.19779,-9.42058 l 9.74643,6.89851 c -0.54106,1.84031 -0.84411,3.78177 -0.84411,5.7947 0,11.36089 9.24301,20.60238 20.60238,20.60238 11.35936,0 20.60238,-9.24149 20.60238,-20.60238 0,-11.36088 -9.24302,-20.60237 -20.60238,-20.60237 z m 0,-48.17322 c 5.50839,0 9.98864,4.48216 9.98864,9.98902 0,5.50687 -4.48025,9.98864 -9.98864,9.98864 -5.50838,0 -9.98863,-4.48177 -9.98863,-9.98864 0,-5.50686 4.48025,-9.98902 9.98863,-9.98902 z m -60.11434,-18.7594 c 0,-5.50686 4.48062,-9.98863 9.98902,-9.98863 5.50838,0 9.98864,4.48177 9.98864,9.98863 0,5.50687 -4.48026,9.98864 -9.98864,9.98864 -5.50839,0 -9.98902,-4.48177 -9.98902,-9.98864 z m 19.97766,116.83627 c 0,5.50687 -4.48026,9.98864 -9.98864,9.98864 -5.50839,0 -9.98902,-4.48177 -9.98902,-9.98864 0,-5.50687 4.48062,-9.98864 9.98902,-9.98864 5.50838,0 9.98864,4.48177 9.98864,9.98864 z m -9.9894,-44.85572 c -7.68254,0 -13.93238,-6.24869 -13.93238,-13.93086 0,-7.68254 6.24984,-13.93237 13.93238,-13.93237 7.68217,0 13.932,6.24983 13.932,13.93237 0,7.68217 -6.24984,13.93086 -13.932,13.93086 z m 50.12608,25.54346 c -5.50838,0 -9.98863,-4.48214 -9.98863,-9.98902 0,-5.50686 4.48025,-9.98863 9.98863,-9.98863 5.50839,0 9.98864,4.48177 9.98864,9.98863 0,5.50688 -4.48025,9.98902 -9.98864,9.98902 z"
     style="fill:#ffffff;stroke-width:0.38023"
     id="path288" /></svg>
